HIERARCHY
ROOT Hips
{
	OFFSET 0.00000 0.00000 0.00000
	CHANNELS 6 Xposition Yposition Zposition Zrotation Yrotation Xrotation 
	JOINT LHipJoint
	{
		OFFSET 0 0 0
		CHANNELS 3 Zrotation Yrotation Xrotation
		JOINT LeftHip
		{
			OFFSET 1.64549 -1.70879 0.84566
			CHANNELS 3 Zrotation Yrotation Xrotation
			JOINT LeftKnee
			{
				OFFSET 2.24963 -6.18082 0.00000
				CHANNELS 3 Zrotation Yrotation Xrotation
				JOINT LeftAnkle
				{
					OFFSET 2.71775 -7.46697 0.00000
					CHANNELS 3 Zrotation Yrotation Xrotation
					JOINT LeftToe
					{
						OFFSET 0.18768 -0.51564 2.24737
						CHANNELS 3 Zrotation Yrotation Xrotation
						End Site
						{
							OFFSET 0.00000 -0.00000 1.15935
						}
					}
				}
			}
		}
	}
	JOINT RHipJoint
	{
		OFFSET 0 0 0
		CHANNELS 3 Zrotation Yrotation Xrotation
		JOINT RightHip
		{
			OFFSET -1.58830 -1.70879 0.84566
			CHANNELS 3 Zrotation Yrotation Xrotation
			JOINT RightKnee
			{
				OFFSET -2.25006 -6.18201 0.00000
				CHANNELS 3 Zrotation Yrotation Xrotation
				JOINT RightAnkle
				{
					OFFSET -2.72829 -7.49593 0.00000
					CHANNELS 3 Zrotation Yrotation Xrotation
					JOINT RightToe
					{
						OFFSET -0.21541 -0.59185 2.10643
						CHANNELS 3 Zrotation Yrotation Xrotation
						End Site
						{
							OFFSET -0.00000 -0.00000 1.09838
						}
					}
				}
			}
		}
	}
	JOINT lowerback
	{
		OFFSET 0 0 0
		CHANNELS 3 Zrotation Yrotation Xrotation
		JOINT Chest
		{
			OFFSET 0.03142 2.10496 -0.11038
			CHANNELS 3 Zrotation Yrotation Xrotation
			JOINT Chest2
			{
				OFFSET -0.01863 2.10897 -0.06956
				CHANNELS 3 Zrotation Yrotation Xrotation
				JOINT lowerneck
				{
					OFFSET 0 0 0
					CHANNELS 3 Zrotation Yrotation Xrotation
					JOINT Neck
					{
						OFFSET -0.02267 1.73238 0.00451
						CHANNELS 3 Zrotation Yrotation Xrotation
						JOINT Head
						{
							OFFSET -0.05808 1.54724 -0.61749
							CHANNELS 3 Zrotation Yrotation Xrotation
							End Site
							{
								OFFSET -0.01396 1.71468 -0.21082
							}
						}
					}
				}
				JOINT LeftCollar
				{
					OFFSET 0 0 0
					CHANNELS 3 Zrotation Yrotation Xrotation
					JOINT LeftShoulder
					{
						OFFSET 3.44898 0.50298 0.21920
CHANNELS 3 Zrotation Xrotation Yrotation
						JOINT LeftElbow
						{
OFFSET 0 -5.419170 -0.000000
CHANNELS 3 Zrotation Xrotation Yrotation
							JOINT LeftWrist
							{
OFFSET 0 -2.443730 0.000000
CHANNELS 3 Zrotation Xrotation Yrotation
								JOINT lhand
								{
									OFFSET 0 0 0
CHANNELS 3 Zrotation Xrotation Yrotation
									JOINT LFingers
									{
OFFSET 0 -0.727500 0.000000
CHANNELS 3 Zrotation Xrotation Yrotation
										End Site
										{
OFFSET 0 -0.586530 0.000000
										}
									}
								}
								JOINT LThumb
								{
OFFSET 0 0.000000 0.000000
CHANNELS 3 Zrotation Xrotation Yrotation
									End Site
									{
OFFSET 0 -0.595490 0.595490
									}
								}
							}
						}
					}
				}
				JOINT RightCollar
				{
					OFFSET 0 0 0
					CHANNELS 3 Zrotation Yrotation Xrotation
					JOINT RightShoulder
					{
						OFFSET -3.23015 0.55830 0.31051
CHANNELS 3 Zrotation Xrotation Yrotation
						JOINT RightElbow
						{
OFFSET 0 -5.589760 0.000140
CHANNELS 3 Zrotation Xrotation Yrotation
							JOINT RightWrist
							{
OFFSET 0 -2.480600 0.000000
CHANNELS 3 Zrotation Xrotation Yrotation
								JOINT rhand
								{
									OFFSET 0 0 0
CHANNELS 3 Zrotation Xrotation Yrotation
									JOINT RFingers
									{
OFFSET 0 -0.816010 0.000000
CHANNELS 3 Zrotation Xrotation Yrotation
										End Site
										{
OFFSET 0 -0.657890 0.000000
										}
									}
								}
								JOINT RThumb
								{
OFFSET 0 0.000000 0.000000
CHANNELS 3 Zrotation Xrotation Yrotation
									End Site
									{
OFFSET 0 -0.667930 0.667930
									}
								}
							}
						}
					}
				}
			}
		}
	}
}
MOTION
Frames: 8
Frame Time: 0.008333333333333333
0.370300 16.400400 -14.370600 -3.944300 -5.230100 30.670600 0.000000 0.000000 0.000000 -23.420300 -11.882600 -54.765100 4.574700 12.888200 38.951500 5.789300 14.000200 -51.142300 1.051400 6.520200 18.301600 0.000000 0.000000 0.000000 31.070700 6.296800 -20.511100 -4.230700 -12.461200 37.383800 0.645700 -22.866300 10.971600 -1.283200 -7.178500 20.245300 -3.822600 1.813300 -16.512000 0.336200 2.972400 -6.282000 3.047200 1.534900 2.331800 0.390000 -1.323300 -9.109900 3.908400 -3.790300 42.490100 1.085500 -0.985400 17.137800 0.000000 -0.000000 0.000000 13.514500 18.148700 -32.337400 34.478900 -44.436400 14.447300 -8.584600 -25.132300 -13.313600 0.000000 0.000000 0.000000 -7.125000 0.000000 0.000000 -31.229100 41.062900 -3.415800 0.000000 -0.000000 0.000000 -6.907500 19.254000 28.001000 -9.446600 -15.869300 -1.319600 3.557300 -23.736300 -8.567800 0.000000 0.000000 0.000000 7.125000 0.000000 -0.000000 21.594100 21.539700 13.098600
0.372593 16.397831 -14.333656 -3.535108 -4.763515 30.463474 0.000000 0.000000 0.000000 -24.205383 -11.449466 -54.410399 4.519758 12.821632 38.704309 5.603335 14.524183 -50.737323 0.894987 6.028679 16.867974 0.000000 0.000000 0.000000 30.919102 5.767954 -20.241875 -4.191814 -12.411364 37.203121 0.549674 -23.500043 12.403235 -1.683319 -8.159709 23.207328 -3.856931 1.471471 -15.935819 0.417292 2.498189 -6.408332 3.043350 1.311389 1.925236 0.664002 -1.252980 -9.065930 3.514745 -3.605532 42.497714 0.885566 -0.920790 17.104276 0.000000 0.000000 0.000000 14.019960 18.913761 -33.559572 35.235841 -44.979768 14.979824 -11.113269 -26.375572 -14.554779 0.000000 0.000000 0.000000 -7.125000 0.000000 0.000000 -33.772519 41.859474 -3.004761 0.000000 0.000000 0.000000 -7.401284 19.342036 28.236966 -9.300531 -15.638047 -1.279944 6.570808 -21.847220 -8.112528 0.000000 0.000000 0.000000 7.125000 0.000000 0.000000 23.683633 21.918431 14.379194
0.372395 16.397124 -14.303378 -3.316750 -4.986357 30.737708 0.000000 0.000000 0.000000 -24.674180 -11.220832 -54.664244 4.517098 12.818343 38.692390 5.518021 14.286501 -50.310411 0.944306 6.187953 17.331016 0.000000 0.000000 0.000000 30.569829 6.086137 -20.273174 -4.165554 -12.377514 37.080880 0.572736 -22.736259 11.478295 -1.243543 -7.037697 19.841594 -3.909642 1.541942 -15.840695 0.327727 2.592653 -6.683281 2.982956 1.371067 1.578108 0.568954 -1.343176 -9.087517 3.566551 -3.746552 42.558299 0.904780 -0.985133 17.153050 0.000000 0.000000 0.000000 14.822248 19.122177 -35.262130 34.799923 -44.668384 14.672649 -14.006582 -26.766178 -15.233018 0.000000 0.000000 0.000000 -7.125000 0.000000 0.000000 -36.337483 42.101941 -3.052519 0.000000 0.000000 0.000000 -7.653364 19.616554 28.640359 -8.974032 -15.118968 -1.193317 8.701125 -19.461263 -9.728290 0.000000 0.000000 0.000000 7.125000 0.000000 0.000000 24.792460 20.383733 16.170971
0.386106 16.393685 -14.281130 -3.778895 -5.317463 31.169101 0.000000 0.000000 0.000000 -24.270435 -11.093932 -55.181353 4.537012 12.842664 38.782356 5.553166 14.206527 -50.396808 0.934676 6.158299 17.244496 0.000000 0.000000 0.000000 30.736891 6.378122 -20.369746 -4.139811 -12.344189 36.960591 0.530577 -22.446244 11.576038 -1.166907 -6.853980 19.284791 -3.319610 1.632376 -16.144761 0.608171 2.625086 -6.734862 2.961552 1.378598 1.697233 0.543224 -1.233900 -9.191412 3.328423 -3.483582 42.515977 0.841887 -0.913537 17.137976 0.000000 0.000000 0.000000 14.836996 19.552708 -36.273643 34.950035 -44.776249 14.778203 -16.139936 -27.609252 -17.258994 0.000000 0.000000 0.000000 -7.125000 0.000000 0.000000 -39.032066 43.520960 -1.705376 0.000000 0.000000 0.000000 -8.520766 19.690361 30.100317 -9.202487 -15.482390 -1.253680 11.338753 -18.241609 -9.593800 0.000000 0.000000 0.000000 7.125000 0.000000 0.000000 26.492296 20.421358 17.534144
0.381083 16.393503 -14.250981 -3.570746 -5.261108 31.392225 0.000000 0.000000 0.000000 -24.577276 -10.981165 -55.323676 4.519434 12.821305 38.703189 5.445634 13.899730 -49.851943 0.944849 6.190858 17.339188 0.000000 0.000000 0.000000 30.622305 6.631249 -20.477255 -4.133547 -12.335984 36.931236 0.624251 -23.629443 11.872587 -1.521245 -7.715225 21.890136 -3.497672 1.455462 -16.043860 0.730393 2.408641 -6.849928 3.148030 1.280668 1.523802 0.696164 -1.181055 -9.505619 3.045852 -3.346940 42.561619 0.705898 -0.866750 17.228957 0.000000 0.000000 0.000000 15.159938 19.874014 -37.804365 34.593266 -44.518788 14.527648 -17.234999 -27.536006 -17.441424 0.000000 0.000000 0.000000 -7.125000 0.000000 0.000000 -39.959117 43.530366 -1.758112 0.000000 0.000000 0.000000 -8.981568 19.743150 30.890243 -9.217636 -15.506571 -1.257664 13.473506 -16.959367 -9.355463 0.000000 0.000000 0.000000 7.125000 0.000000 0.000000 27.864567 20.541622 18.619834
0.382029 16.397007 -14.212284 -3.314680 -5.449273 31.589004 0.000000 0.000000 0.000000 -25.071454 -10.774554 -55.394277 4.499088 12.796475 38.611320 5.541394 13.751610 -50.127476 0.944366 6.188899 17.333580 0.000000 0.000000 0.000000 30.319844 6.814394 -20.489441 -4.115466 -12.312503 36.846587 0.720781 -24.368184 11.795161 -1.677957 -8.100540 23.053699 -3.526450 1.475940 -15.647009 0.639011 2.422880 -7.271560 3.044245 1.307682 0.869670 0.873992 -1.146479 -9.447913 2.922180 -3.302517 42.737926 0.627417 -0.834263 17.308757 0.000000 0.000000 0.000000 15.833478 20.685248 -39.967651 33.785010 -43.924812 13.963656 -17.949017 -25.441799 -16.147567 0.000000 0.000000 0.000000 -7.125000 0.000000 0.000000 -39.771375 42.380686 -3.130217 0.000000 0.000000 0.000000 -9.153179 20.372842 31.529524 -9.297102 -15.632632 -1.279057 15.511619 -16.036049 -8.725164 0.000000 0.000000 0.000000 7.125000 0.000000 0.000000 29.238336 20.993549 19.485467
0.388390 16.391339 -14.170524 -3.416782 -5.134119 31.698044 0.000000 0.000000 0.000000 -25.033173 -10.714204 -55.400656 4.495978 12.792658 38.597285 5.456568 14.309606 -50.099664 0.856978 5.902361 16.501728 0.000000 0.000000 0.000000 30.609907 6.413636 -20.473053 -4.094492 -12.285078 36.748065 0.843127 -25.083642 11.525716 -1.966921 -8.736342 25.013644 -2.994256 1.409261 -15.709583 0.744154 2.257427 -7.367642 2.828816 1.216279 0.833473 1.243131 -1.077712 -9.286361 2.553022 -3.143112 42.678876 0.417755 -0.762000 17.210540 0.000000 0.000000 0.000000 16.110461 21.174238 -41.305385 33.092697 -43.400092 13.486087 -18.324221 -24.242264 -15.584186 0.000000 0.000000 0.000000 -7.125000 0.000000 0.000000 -39.742116 41.871932 -3.746472 0.000000 0.000000 0.000000 -9.479740 20.606473 32.588018 -9.339994 -15.700568 -1.290577 17.300315 -15.097519 -9.018078 0.000000 0.000000 0.000000 7.125000 0.000000 0.000000 30.235801 20.602806 20.717392
0.386229 16.390820 -14.132774 -3.055738 -5.306533 31.851064 0.000000 0.000000 0.000000 -25.579328 -10.590194 -55.497575 4.500056 12.797616 38.615620 5.311498 14.382021 -49.605176 0.761804 5.573020 15.550616 0.000000 0.000000 0.000000 30.306352 6.604050 -20.578222 -4.083475 -12.270669 36.696378 0.934772 -26.062738 11.799477 -2.149377 -9.120248 26.208082 -3.413144 1.225580 -15.952438 0.892497 2.077422 -7.291294 3.203729 1.132640 1.030326 1.057958 -1.026975 -9.498912 2.481845 -2.996985 42.633516 0.440661 -0.740849 17.236598 0.000000 0.000000 0.000000 16.000420 20.966782 -42.460662 31.930495 -42.491008 12.694052 -18.534455 -23.306063 -15.276053 0.000000 0.000000 0.000000 -7.125000 0.000000 0.000000 -39.729585 41.592410 -4.086286 0.000000 0.000000 0.000000 -10.113833 20.491797 33.933711 -9.531348 -16.002928 -1.343115 18.616340 -14.769372 -8.160133 0.000000 0.000000 0.000000 7.125000 0.000000 0.000000 31.204236 21.265531 21.064845
